<?xml version="1.0"?>

<svg xmlns="http://www.w3.org/2000/svg" width="126" height="36" viewBox="0 0 126 36">
    <svg viewBox="0 0 461 461" width="18" height="18" x="0" y="0" fill="#455468">
        <path d="M365 67H96c-53 0-96 43-96 96v135c0 53 43 96 96 96h269c53 0 96-43 96-96V163c0-53-43-96-96-96zm-64 170l-127 60c-3 2-7-1-7-4V169c0-4 4-7 8-5l126 64c3 2 3 7 0 9z"/>
    </svg>
    <svg viewBox="0 0 461 461" width="18" height="18" x="0" y="18" fill="#19A8D9">
        <path d="M365 67H96c-53 0-96 43-96 96v135c0 53 43 96 96 96h269c53 0 96-43 96-96V163c0-53-43-96-96-96zm-64 170l-127 60c-3 2-7-1-7-4V169c0-4 4-7 8-5l126 64c3 2 3 7 0 9z"/>
    </svg>

    <svg viewBox="0 0 461 461" width="86" height="86" x="18" y="0" fill="#455468">
        <path d="M72 0H59.7c-14 0-23 9.3-23 23.7v10.9H24c-1 0-2 .8-2 2v15.7c0 1.1 1 2 2 2h12.6v39.9c0 1 .8 2 2 2h16.3c1 0 2-1 2-2v-40h14.6c1 0 2-.8 2-1.9V36.5a2 2 0 0 0-2-2H56.8v-9.2c0-4.4 1.1-6.7 6.9-6.7H72c1 0 2-.9 2-2V2c0-1.1-1-2-2-2z"/>
    </svg>
    <svg viewBox="0 0 461 461" width="86" height="86" x="18" y="18" fill="#19A8D9">
        <path d="M72 0H59.7c-14 0-23 9.3-23 23.7v10.9H24c-1 0-2 .8-2 2v15.7c0 1.1 1 2 2 2h12.6v39.9c0 1 .8 2 2 2h16.3c1 0 2-1 2-2v-40h14.6c1 0 2-.8 2-1.9V36.5a2 2 0 0 0-2-2H56.8v-9.2c0-4.4 1.1-6.7 6.9-6.7H72c1 0 2-.9 2-2V2c0-1.1-1-2-2-2z"/>
    </svg>

    <svg viewBox="0 0 491.9 491.9" width="18" height="18" x="36" y="0" fill="#455468">
        <path d="M377.5 225H201.3v58.7h107.5a125.9 125.9 0 1 1-30.6-126.2l42.6-46.4a188.7 188.7 0 1 0-132 323.5c91.2 0 171.2-64.8 188.7-151V225zM491.9 224.9h-36v-36h-31v36h-36v30.8h36v36h31v-36h36z"/>
    </svg>
    <svg viewBox="0 0 491.9 491.9" width="18" height="18" x="36" y="18" fill="#19A8D9">
        <path d="M377.5 225H201.3v58.7h107.5a125.9 125.9 0 1 1-30.6-126.2l42.6-46.4a188.7 188.7 0 1 0-132 323.5c91.2 0 171.2-64.8 188.7-151V225zM491.9 224.9h-36v-36h-31v36h-36v30.8h36v36h31v-36h36z"/>
    </svg>

    <svg viewBox="0 0 491.9 491.9" width="50" height="50" x="54" y="0" fill="#455468">
        <path d="M122.4 0H46.7C20.9 0 0 21 0 46.7v75.7c0 25.7 21 46.7 46.7 46.7h75.7c25.7 0 46.7-21 46.7-46.7V46.7C169 20.9 148 0 122.4 0zm31.7 122.4a31.7 31.7 0 0 1-31.7 31.7H46.7A31.7 31.7 0 0 1 15 122.4V46.7A31.7 31.7 0 0 1 46.7 15h75.7a31.7 31.7 0 0 1 31.7 31.7v75.7z"/>
        <path d="M84.5 41a43.6 43.6 0 1 0 .1 87.2 43.6 43.6 0 0 0 0-87.2zm0 72a28.6 28.6 0 1 1 0-57.1 28.6 28.6 0 0 1 0 57.2zM130 28.3a11 11 0 0 0-11 11 11 11 0 0 0 11 11 11 11 0 0 0 7.8-18.8 11 11 0 0 0-7.9-3.2z"/>
    </svg>
    <svg viewBox="0 0 491.9 491.9" width="50" height="50" x="54" y="18" fill="#19A8D9">
        <path d="M122.4 0H46.7C20.9 0 0 21 0 46.7v75.7c0 25.7 21 46.7 46.7 46.7h75.7c25.7 0 46.7-21 46.7-46.7V46.7C169 20.9 148 0 122.4 0zm31.7 122.4a31.7 31.7 0 0 1-31.7 31.7H46.7A31.7 31.7 0 0 1 15 122.4V46.7A31.7 31.7 0 0 1 46.7 15h75.7a31.7 31.7 0 0 1 31.7 31.7v75.7z"/>
        <path d="M84.5 41a43.6 43.6 0 1 0 .1 87.2 43.6 43.6 0 0 0 0-87.2zm0 72a28.6 28.6 0 1 1 0-57.1 28.6 28.6 0 0 1 0 57.2zM130 28.3a11 11 0 0 0-11 11 11 11 0 0 0 11 11 11 11 0 0 0 7.8-18.8 11 11 0 0 0-7.9-3.2z"/>
    </svg>

    <svg viewBox="0 0 512 512" width="18" height="18" x="72" y="0" fill="#455468">
        <path d="M512 97.2c-19 8.4-39.3 14-60.5 16.6 21.8-13 38.4-33.4 46.2-58a209.8 209.8 0 0 1-66.6 25.4A105 105 0 0 0 249.5 153c0 8.3.8 16.3 2.5 24A297.1 297.1 0 0 1 35.6 67 105.1 105.1 0 0 0 68 207.4c-16.9-.3-33.4-5.2-47.4-12.9v1.1c0 51 36.4 93.4 84 103.2-8.5 2.3-17.8 3.4-27.4 3.4-6.8 0-13.5-.3-20-1.8a106 106 0 0 0 98.2 73.2A211 211 0 0 1 0 416.9 295.5 295.5 0 0 0 161 464c193.2 0 298.8-160 298.8-298.7 0-4.6-.2-9.1-.4-13.6A209.4 209.4 0 0 0 512 97.2z"/>
    </svg>
    <svg viewBox="0 0 512 512" width="18" height="18" x="72" y="18" fill="#19A8D9">
        <path d="M512 97.2c-19 8.4-39.3 14-60.5 16.6 21.8-13 38.4-33.4 46.2-58a209.8 209.8 0 0 1-66.6 25.4A105 105 0 0 0 249.5 153c0 8.3.8 16.3 2.5 24A297.1 297.1 0 0 1 35.6 67 105.1 105.1 0 0 0 68 207.4c-16.9-.3-33.4-5.2-47.4-12.9v1.1c0 51 36.4 93.4 84 103.2-8.5 2.3-17.8 3.4-27.4 3.4-6.8 0-13.5-.3-20-1.8a106 106 0 0 0 98.2 73.2A211 211 0 0 1 0 416.9 295.5 295.5 0 0 0 161 464c193.2 0 298.8-160 298.8-298.7 0-4.6-.2-9.1-.4-13.6A209.4 209.4 0 0 0 512 97.2z"/>
    </svg>

    <svg viewBox="0 0 430.1 430.1" width="18" height="18" x="90" y="0" fill="#455468">
        <path d="M430.1 261.5v159H338V272.3c0-37.3-13.3-62.7-46.7-62.7-25.4 0-40.6 17.1-47.3 33.7a63 63 0 0 0-3 22.5v154.9h-92.3s1.3-251.3 0-277.4H241v39.3l-.6 1h.6v-1c12.2-18.8 34-45.8 83-45.8 60.7 0 106.2 39.7 106.2 124.8zm-378-252C20.7 9.6 0 30.4 0 57.6c0 26.6 20 47.9 51 47.9h.6c32.1 0 52.1-21.3 52.1-48-.6-27.1-20-47.8-51.5-47.8zm-46.6 411h92.2V143.3H5.5v277.4z"/>
    </svg>

    <svg viewBox="0 0 430.1 430.1" width="18" height="18" x="90" y="18" fill="#19A8D9">
        <path d="M430.1 261.5v159H338V272.3c0-37.3-13.3-62.7-46.7-62.7-25.4 0-40.6 17.1-47.3 33.7a63 63 0 0 0-3 22.5v154.9h-92.3s1.3-251.3 0-277.4H241v39.3l-.6 1h.6v-1c12.2-18.8 34-45.8 83-45.8 60.7 0 106.2 39.7 106.2 124.8zm-378-252C20.7 9.6 0 30.4 0 57.6c0 26.6 20 47.9 51 47.9h.6c32.1 0 52.1-21.3 52.1-48-.6-27.1-20-47.8-51.5-47.8zm-46.6 411h92.2V143.3H5.5v277.4z"/>
    </svg>

    <svg viewBox="0 0 512 512" width="18" height="18" x="108" y="0" fill="#455468">
        <path d="M192 32C86 32 0 103.6 0 192c0 51 28.7 96.1 73.3 125.4L48 368l69-29.5a218 218 0 0 0 46.5 11.5 134 134 0 0 1-3.5-30c0-88.2 86.1-160 192-160 9.7 0 19.2.8 28.5 2C363.6 88 285.7 32 192 32zm-64 120a24 24 0 1 1 0-48 24 24 0 0 1 0 48zm128 0a24 24 0 1 1 0-48 24 24 0 0 1 0 48z"/><path d="M512 320c0-70.7-71.6-128-160-128s-160 57.3-160 128 71.6 128 160 128c14.5 0 28.4-2 41.8-5l86.2 37-29.8-59.6C487.6 397 512 360.9 512 320zm-208-8a24 24 0 1 1 0-48 24 24 0 0 1 0 48zm96 0a24 24 0 1 1 0-48 24 24 0 0 1 0 48z"/>
    </svg>

    <svg viewBox="0 0 512 512" width="18" height="18" x="108" y="18" fill="#19A8D9">
        <path d="M192 32C86 32 0 103.6 0 192c0 51 28.7 96.1 73.3 125.4L48 368l69-29.5a218 218 0 0 0 46.5 11.5 134 134 0 0 1-3.5-30c0-88.2 86.1-160 192-160 9.7 0 19.2.8 28.5 2C363.6 88 285.7 32 192 32zm-64 120a24 24 0 1 1 0-48 24 24 0 0 1 0 48zm128 0a24 24 0 1 1 0-48 24 24 0 0 1 0 48z"/><path d="M512 320c0-70.7-71.6-128-160-128s-160 57.3-160 128 71.6 128 160 128c14.5 0 28.4-2 41.8-5l86.2 37-29.8-59.6C487.6 397 512 360.9 512 320zm-208-8a24 24 0 1 1 0-48 24 24 0 0 1 0 48zm96 0a24 24 0 1 1 0-48 24 24 0 0 1 0 48z"/>
    </svg>
</svg>